<svg version="1.1" id="Layer_1" xmlns="http://www.w3.org/2000/svg" xmlns:xlink="http://www.w3.org/1999/xlink" x="0px" y="0px"
	 width="100%" viewBox="0 0 1024 1024" enable-background="new 0 0 1024 1024" xml:space="preserve">
<path fill="none" opacity="1.000000" stroke="none" 
	d="
M540.000000,1025.000000 
	C360.000000,1025.000000 180.500000,1025.000000 1.000000,1025.000000 
	C1.000000,683.666687 1.000000,342.333344 1.000000,1.000000 
	C342.333344,1.000000 683.666687,1.000000 1025.000000,1.000000 
	C1025.000000,342.333344 1025.000000,683.666687 1025.000000,1025.000000 
	C863.500000,1025.000000 702.000000,1025.000000 540.000000,1025.000000 
M525.935425,871.464417 
	C537.054260,839.050964 540.082031,805.494141 539.774536,771.516541 
	C539.730713,766.674988 541.264099,763.521912 544.916992,760.453247 
	C563.666931,744.702332 582.368652,728.886597 600.793091,712.757446 
	C631.625427,685.766052 641.909180,651.244873 635.141174,611.749939 
	C629.876648,581.028442 612.807617,556.891113 588.355591,537.970703 
	C570.990784,524.534119 551.139099,515.408630 531.475525,505.989075 
	C520.042297,500.512054 508.914154,494.494415 499.546448,485.755219 
	C489.206116,476.108673 481.376862,464.877686 478.946899,450.658020 
	C475.015656,427.653442 482.352814,407.659119 495.947754,389.469696 
	C496.253082,389.061157 496.883850,388.895844 498.203369,388.127777 
	C497.750885,395.747101 497.814362,402.566986 496.855865,409.240143 
	C494.583191,425.062988 504.566345,436.238708 511.222198,448.677246 
	C512.483459,451.034302 514.416321,450.806458 515.813904,448.434113 
	C516.404724,447.431183 516.801270,446.299896 517.472839,445.360443 
	C528.092041,430.505493 532.333069,414.059998 529.999756,395.915253 
	C529.740845,393.902069 529.964722,391.826782 529.964722,389.780304 
	C530.707031,389.549561 531.449402,389.318848 532.191711,389.088104 
	C536.512878,396.794525 541.925964,404.099335 544.937439,412.287445 
	C552.147156,431.890442 549.733704,451.269043 540.836853,469.970917 
	C539.299133,473.203186 537.876526,476.490204 536.157043,480.290741 
	C538.759888,481.048248 540.470581,481.550415 542.183838,482.044006 
	C557.491333,486.454163 573.376465,489.268402 586.739258,498.908844 
	C592.812866,503.290588 599.003662,507.559418 605.433411,511.389069 
	C626.295593,523.814941 647.110840,536.340271 668.311340,548.169250 
	C679.733887,554.542542 691.651794,553.916748 703.831360,548.502747 
	C731.012085,536.420532 754.891968,519.240479 778.549194,501.636475 
	C779.611755,500.845795 780.346191,499.614258 781.843018,497.883087 
	C778.788635,497.108582 776.762573,496.531860 774.708496,496.083923 
	C757.974365,492.434540 741.099915,489.334259 724.524658,485.069977 
	C687.276489,475.487305 651.839417,461.212982 618.673706,441.655701 
	C614.013672,438.907745 608.510742,434.907318 606.864563,430.258942 
	C602.767639,418.690582 597.414734,408.004578 590.660706,397.881500 
	C589.746460,396.511230 589.281738,394.848969 588.451416,393.412994 
	C586.944092,390.806458 587.986389,389.466370 590.504639,388.529694 
	C594.557129,387.022430 598.577637,385.425140 602.582092,383.793427 
	C629.050110,373.008270 649.835571,355.133148 665.024292,331.261200 
	C669.599731,324.070038 674.466553,321.481812 682.371582,320.920654 
	C725.749268,317.841003 768.995483,313.364288 811.848206,305.852173 
	C839.744934,300.961823 865.233398,290.400024 886.045532,270.499237 
	C904.927307,252.444229 918.672241,230.625458 930.915771,207.792465 
	C932.225342,205.350174 932.905579,202.486435 933.450623,199.733627 
	C935.191284,190.943466 933.465271,189.379776 925.139221,191.889282 
	C924.660828,192.033493 924.176331,192.157318 923.694153,192.288681 
	C885.979126,202.565247 848.708008,215.115128 810.445374,222.587906 
	C752.295959,233.944641 693.469482,241.848419 634.894775,250.989365 
	C629.760071,251.790665 627.533630,253.613678 626.892822,258.853271 
	C622.160095,297.550934 600.493042,324.731598 568.092285,344.514130 
	C565.212952,346.272125 562.872437,346.023834 560.542725,343.634644 
	C551.578247,334.441254 545.344055,323.791779 543.962891,310.866486 
	C541.795410,290.583191 550.616394,274.249207 563.529663,259.757263 
	C577.250793,244.358749 594.694580,234.480316 613.775818,227.227753 
	C615.636292,226.520615 617.363708,225.463486 619.102661,224.593933 
	C612.443665,218.422272 605.951782,213.188492 600.381348,207.110214 
	C573.030762,177.266281 545.912903,147.208908 518.743347,117.199310 
	C513.425110,111.325165 512.337585,111.211777 507.099609,117.141304 
	C492.760925,133.373001 478.398193,149.584488 464.186523,165.927063 
	C446.710175,186.023804 429.599457,206.461731 408.464203,222.982162 
	C408.134888,223.239563 408.086273,223.856094 407.665314,224.908401 
	C410.648346,226.312317 413.686005,227.543747 416.534363,229.117722 
	C427.275421,235.053024 438.562012,240.241669 448.525574,247.291122 
	C466.799164,260.220154 478.389099,277.986359 481.596191,300.494812 
	C483.941620,316.955261 478.521515,330.996704 467.068817,342.816071 
	C464.499329,345.467834 461.841278,346.985229 457.942413,344.412567 
	C437.445831,330.888092 420.064148,314.514771 409.210175,292.066895 
	C403.855682,280.992859 400.879700,269.258514 400.233063,256.971832 
	C400.053040,253.550903 398.574310,252.012192 395.095856,251.625427 
	C389.475891,251.000549 383.913879,249.869522 378.316559,249.023682 
	C337.811401,242.902710 297.314850,236.723114 256.793182,230.713318 
	C218.975861,225.104584 182.322479,214.611588 145.584457,204.473206 
	C130.187393,200.224182 114.886841,195.626450 99.523415,191.253967 
	C93.854118,189.640472 92.167847,190.596848 92.801720,196.424088 
	C93.362175,201.576385 94.500175,207.108337 97.041283,211.516937 
	C103.765137,223.182251 110.938164,234.649002 118.736786,245.623184 
	C142.002075,278.361969 173.406021,298.575134 213.093765,305.771301 
	C255.591934,313.476959 298.355408,318.895905 341.512817,320.889221 
	C349.518219,321.258972 356.912933,321.795502 359.355255,331.319672 
	C359.511627,331.929443 360.064606,332.436890 360.430481,332.993622 
	C377.656525,359.206146 401.842987,376.297241 430.970856,386.986328 
	C440.681610,390.549866 440.884583,390.915863 434.930176,399.609131 
	C429.057434,408.183075 423.847015,416.914703 421.637939,427.265533 
	C420.391602,433.105316 416.438721,437.225830 411.200623,440.017700 
	C400.189514,445.886597 389.354919,452.132599 378.094574,457.479736 
	C337.844086,476.593231 295.608643,489.358398 251.560867,496.128265 
	C249.520477,496.441864 247.540192,497.146423 244.627945,497.904083 
	C246.230743,499.687714 247.030212,500.938660 248.144760,501.764313 
	C271.178711,518.828064 294.573517,535.311218 320.508362,547.846619 
	C332.836426,553.805298 345.266174,554.902344 357.468689,548.390259 
	C373.595459,539.783936 389.873962,531.290161 405.129425,521.287231 
	C414.300598,515.273682 421.762939,506.598755 429.781158,498.899048 
	C436.498199,492.448822 438.918579,492.559052 443.882507,500.487000 
	C446.794861,505.138367 449.241425,510.113403 452.453888,514.539001 
	C463.872192,530.269470 479.376251,540.982422 496.267670,550.117493 
	C513.103516,559.222412 529.964233,568.358276 546.229492,578.425110 
	C580.191833,599.444763 587.125732,645.829102 559.715027,674.815735 
	C547.726501,687.493530 532.547302,697.167358 518.728271,708.093018 
	C514.332031,711.568848 509.792542,710.032654 505.765717,707.296814 
	C498.472382,702.341736 490.937286,697.605591 484.286957,691.869263 
	C470.406311,679.896240 458.747253,666.123230 452.605927,648.375977 
	C449.842865,640.391235 449.186401,632.456909 451.958893,624.395386 
	C453.547638,619.775757 456.268585,618.131653 460.797424,619.970032 
	C466.626556,622.336182 472.158539,625.429504 477.842834,628.158936 
	C482.584198,630.435608 485.388580,634.017822 487.252686,639.067505 
	C492.297272,652.733032 501.258789,663.925903 511.010773,674.529663 
	C513.522705,677.260925 515.902405,677.867981 518.387329,674.620972 
	C524.555176,666.561523 531.432739,658.934937 536.708740,650.327454 
	C546.165527,634.899292 544.155029,623.037292 530.132019,611.538940 
	C519.863892,603.119507 508.997009,595.311218 497.790070,588.185059 
	C482.936310,578.739990 467.511078,570.190735 452.285706,561.335144 
	C448.341766,559.041260 444.254181,558.818848 439.887573,560.658081 
	C416.482574,570.516541 398.964935,586.339905 393.264709,611.662170 
	C384.421539,650.946228 395.240845,684.982605 424.977234,712.204346 
	C443.398285,729.067688 462.781342,744.885742 481.881744,760.996094 
	C485.232086,763.821960 486.794342,766.853699 486.949463,771.207031 
	C487.411865,784.185974 488.184174,797.154236 488.868195,810.124878 
	C490.438782,839.906494 498.667694,868.107300 509.399231,895.683105 
	C510.175690,897.678284 512.197021,899.188965 513.639526,900.924927 
	C515.162292,899.113892 517.328430,897.538208 518.092529,895.449646 
	C520.889771,887.803589 523.220337,879.986816 525.935425,871.464417 
M134.486404,350.001740 
	C152.436249,380.035065 174.402390,406.847748 198.921722,431.752960 
	C206.063354,439.006958 212.782440,442.641266 223.596786,441.384735 
	C254.165924,437.832886 285.044678,436.771179 315.521759,432.656738 
	C339.669464,429.396729 363.413513,423.121552 387.316956,418.090820 
	C395.783783,416.308899 399.928589,409.699310 404.339874,402.727386 
	C402.740112,401.830566 401.686493,400.956116 400.480682,400.606476 
	C381.721588,395.166840 367.541168,382.864197 354.304993,369.371277 
	C350.415039,365.405853 346.998993,360.553650 344.776245,355.488831 
	C342.369232,350.004211 339.104614,348.248505 333.386444,348.292480 
	C313.401917,348.446014 293.391113,348.747894 273.433929,347.929596 
	C251.996613,347.050629 230.569427,345.376404 209.208801,343.314056 
	C182.650040,340.749786 156.612717,335.245728 131.036469,327.579224 
	C129.316284,327.063629 127.260521,327.667603 125.360832,327.750854 
	C125.483246,329.666229 125.068184,331.833527 125.826241,333.450989 
	C128.362885,338.863434 131.318909,344.079315 134.486404,350.001740 
M876.961060,332.480225 
	C841.170288,341.931244 804.473511,344.908508 767.739807,346.839752 
	C742.810852,348.150391 717.788208,347.864136 692.807434,347.862183 
	C687.145752,347.861755 683.772400,349.495911 681.692505,354.758362 
	C680.615601,357.483215 678.759583,360.014954 676.830078,362.269806 
	C662.939636,378.501556 647.220520,392.373047 626.963196,400.283020 
	C625.621826,400.806824 624.420349,401.689026 622.613037,402.709930 
	C627.166321,408.150116 629.104187,415.271606 636.681519,417.236053 
	C645.534851,419.531250 654.311340,422.168854 663.236877,424.131439 
	C697.956848,431.765656 733.227722,435.371002 768.608582,438.063934 
	C782.057129,439.087555 795.608582,439.324005 808.927063,441.223511 
	C814.468567,442.013824 818.043213,441.322357 821.597961,437.396698 
	C834.563232,423.078339 847.854492,409.049377 860.605347,394.544250 
	C875.711548,377.359619 888.925415,358.801514 898.751587,338.024292 
	C900.310852,334.727234 901.261597,331.142334 902.493774,327.690552 
	C902.067444,327.279694 901.641174,326.868805 901.214905,326.457947 
	C893.395691,328.387939 885.576477,330.317932 876.961060,332.480225 
z"/>
<path fill="currentColor" opacity="1.000000" stroke="none" 
	d="
M525.831055,871.849365 
	C523.220337,879.986816 520.889771,887.803589 518.092529,895.449646 
	C517.328430,897.538208 515.162292,899.113892 513.639526,900.924927 
	C512.197021,899.188965 510.175690,897.678284 509.399231,895.683105 
	C498.667694,868.107300 490.438782,839.906494 488.868195,810.124878 
	C488.184174,797.154236 487.411865,784.185974 486.949463,771.207031 
	C486.794342,766.853699 485.232086,763.821960 481.881744,760.996094 
	C462.781342,744.885742 443.398285,729.067688 424.977234,712.204346 
	C395.240845,684.982605 384.421539,650.946228 393.264709,611.662170 
	C398.964935,586.339905 416.482574,570.516541 439.887573,560.658081 
	C444.254181,558.818848 448.341766,559.041260 452.285706,561.335144 
	C467.511078,570.190735 482.936310,578.739990 497.790070,588.185059 
	C508.997009,595.311218 519.863892,603.119507 530.132019,611.538940 
	C544.155029,623.037292 546.165527,634.899292 536.708740,650.327454 
	C531.432739,658.934937 524.555176,666.561523 518.387329,674.620972 
	C515.902405,677.867981 513.522705,677.260925 511.010773,674.529663 
	C501.258789,663.925903 492.297272,652.733032 487.252686,639.067505 
	C485.388580,634.017822 482.584198,630.435608 477.842834,628.158936 
	C472.158539,625.429504 466.626556,622.336182 460.797424,619.970032 
	C456.268585,618.131653 453.547638,619.775757 451.958893,624.395386 
	C449.186401,632.456909 449.842865,640.391235 452.605927,648.375977 
	C458.747253,666.123230 470.406311,679.896240 484.286957,691.869263 
	C490.937286,697.605591 498.472382,702.341736 505.765717,707.296814 
	C509.792542,710.032654 514.332031,711.568848 518.728271,708.093018 
	C532.547302,697.167358 547.726501,687.493530 559.715027,674.815735 
	C587.125732,645.829102 580.191833,599.444763 546.229492,578.425110 
	C529.964233,568.358276 513.103516,559.222412 496.267670,550.117493 
	C479.376251,540.982422 463.872192,530.269470 452.453888,514.539001 
	C449.241425,510.113403 446.794861,505.138367 443.882507,500.487000 
	C438.918579,492.559052 436.498199,492.448822 429.781158,498.899048 
	C421.762939,506.598755 414.300598,515.273682 405.129425,521.287231 
	C389.873962,531.290161 373.595459,539.783936 357.468689,548.390259 
	C345.266174,554.902344 332.836426,553.805298 320.508362,547.846619 
	C294.573517,535.311218 271.178711,518.828064 248.144760,501.764313 
	C247.030212,500.938660 246.230743,499.687714 244.627945,497.904083 
	C247.540192,497.146423 249.520477,496.441864 251.560867,496.128265 
	C295.608643,489.358398 337.844086,476.593231 378.094574,457.479736 
	C389.354919,452.132599 400.189514,445.886597 411.200623,440.017700 
	C416.438721,437.225830 420.391602,433.105316 421.637939,427.265533 
	C423.847015,416.914703 429.057434,408.183075 434.930176,399.609131 
	C440.884583,390.915863 440.681610,390.549866 430.970856,386.986328 
	C401.842987,376.297241 377.656525,359.206146 360.430481,332.993622 
	C360.064606,332.436890 359.511627,331.929443 359.355255,331.319672 
	C356.912933,321.795502 349.518219,321.258972 341.512817,320.889221 
	C298.355408,318.895905 255.591934,313.476959 213.093765,305.771301 
	C173.406021,298.575134 142.002075,278.361969 118.736786,245.623184 
	C110.938164,234.649002 103.765137,223.182251 97.041283,211.516937 
	C94.500175,207.108337 93.362175,201.576385 92.801720,196.424088 
	C92.167847,190.596848 93.854118,189.640472 99.523415,191.253967 
	C114.886841,195.626450 130.187393,200.224182 145.584457,204.473206 
	C182.322479,214.611588 218.975861,225.104584 256.793182,230.713318 
	C297.314850,236.723114 337.811401,242.902710 378.316559,249.023682 
	C383.913879,249.869522 389.475891,251.000549 395.095856,251.625427 
	C398.574310,252.012192 400.053040,253.550903 400.233063,256.971832 
	C400.879700,269.258514 403.855682,280.992859 409.210175,292.066895 
	C420.064148,314.514771 437.445831,330.888092 457.942413,344.412567 
	C461.841278,346.985229 464.499329,345.467834 467.068817,342.816071 
	C478.521515,330.996704 483.941620,316.955261 481.596191,300.494812 
	C478.389099,277.986359 466.799164,260.220154 448.525574,247.291122 
	C438.562012,240.241669 427.275421,235.053024 416.534363,229.117722 
	C413.686005,227.543747 410.648346,226.312317 407.665314,224.908401 
	C408.086273,223.856094 408.134888,223.239563 408.464203,222.982162 
	C429.599457,206.461731 446.710175,186.023804 464.186523,165.927063 
	C478.398193,149.584488 492.760925,133.373001 507.099609,117.141304 
	C512.337585,111.211777 513.425110,111.325165 518.743347,117.199310 
	C545.912903,147.208908 573.030762,177.266281 600.381348,207.110214 
	C605.951782,213.188492 612.443665,218.422272 619.102661,224.593933 
	C617.363708,225.463486 615.636292,226.520615 613.775818,227.227753 
	C594.694580,234.480316 577.250793,244.358749 563.529663,259.757263 
	C550.616394,274.249207 541.795410,290.583191 543.962891,310.866486 
	C545.344055,323.791779 551.578247,334.441254 560.542725,343.634644 
	C562.872437,346.023834 565.212952,346.272125 568.092285,344.514130 
	C600.493042,324.731598 622.160095,297.550934 626.892822,258.853271 
	C627.533630,253.613678 629.760071,251.790665 634.894775,250.989365 
	C693.469482,241.848419 752.295959,233.944641 810.445374,222.587906 
	C848.708008,215.115128 885.979126,202.565247 923.694153,192.288681 
	C924.176331,192.157318 924.660828,192.033493 925.139221,191.889282 
	C933.465271,189.379776 935.191284,190.943466 933.450623,199.733627 
	C932.905579,202.486435 932.225342,205.350174 930.915771,207.792465 
	C918.672241,230.625458 904.927307,252.444229 886.045532,270.499237 
	C865.233398,290.400024 839.744934,300.961823 811.848206,305.852173 
	C768.995483,313.364288 725.749268,317.841003 682.371582,320.920654 
	C674.466553,321.481812 669.599731,324.070038 665.024292,331.261200 
	C649.835571,355.133148 629.050110,373.008270 602.582092,383.793427 
	C598.577637,385.425140 594.557129,387.022430 590.504639,388.529694 
	C587.986389,389.466370 586.944092,390.806458 588.451416,393.412994 
	C589.281738,394.848969 589.746460,396.511230 590.660706,397.881500 
	C597.414734,408.004578 602.767639,418.690582 606.864563,430.258942 
	C608.510742,434.907318 614.013672,438.907745 618.673706,441.655701 
	C651.839417,461.212982 687.276489,475.487305 724.524658,485.069977 
	C741.099915,489.334259 757.974365,492.434540 774.708496,496.083923 
	C776.762573,496.531860 778.788635,497.108582 781.843018,497.883087 
	C780.346191,499.614258 779.611755,500.845795 778.549194,501.636475 
	C754.891968,519.240479 731.012085,536.420532 703.831360,548.502747 
	C691.651794,553.916748 679.733887,554.542542 668.311340,548.169250 
	C647.110840,536.340271 626.295593,523.814941 605.433411,511.389069 
	C599.003662,507.559418 592.812866,503.290588 586.739258,498.908844 
	C573.376465,489.268402 557.491333,486.454163 542.183838,482.044006 
	C540.470581,481.550415 538.759888,481.048248 536.157043,480.290741 
	C537.876526,476.490204 539.299133,473.203186 540.836853,469.970917 
	C549.733704,451.269043 552.147156,431.890442 544.937439,412.287445 
	C541.925964,404.099335 536.512878,396.794525 532.191711,389.088104 
	C531.449402,389.318848 530.707031,389.549561 529.964722,389.780304 
	C529.964722,391.826782 529.740845,393.902069 529.999756,395.915253 
	C532.333069,414.059998 528.092041,430.505493 517.472839,445.360443 
	C516.801270,446.299896 516.404724,447.431183 515.813904,448.434113 
	C514.416321,450.806458 512.483459,451.034302 511.222198,448.677246 
	C504.566345,436.238708 494.583191,425.062988 496.855865,409.240143 
	C497.814362,402.566986 497.750885,395.747101 498.203369,388.127777 
	C496.883850,388.895844 496.253082,389.061157 495.947754,389.469696 
	C482.352814,407.659119 475.015656,427.653442 478.946899,450.658020 
	C481.376862,464.877686 489.206116,476.108673 499.546448,485.755219 
	C508.914154,494.494415 520.042297,500.512054 531.475525,505.989075 
	C551.139099,515.408630 570.990784,524.534119 588.355591,537.970703 
	C612.807617,556.891113 629.876648,581.028442 635.141174,611.749939 
	C641.909180,651.244873 631.625427,685.766052 600.793091,712.757446 
	C582.368652,728.886597 563.666931,744.702332 544.916992,760.453247 
	C541.264099,763.521912 539.730713,766.674988 539.774536,771.516541 
	C540.082031,805.494141 537.054260,839.050964 525.831055,871.849365 
M510.457764,251.069687 
	C511.176483,252.431519 511.895172,253.793350 513.121399,256.116882 
	C522.764160,239.331390 533.172546,224.462799 549.869324,215.178497 
	C537.041199,200.870163 524.872925,187.297760 512.557739,173.561584 
	C500.792755,187.495010 489.177399,201.251251 477.199402,215.436951 
	C491.590759,223.855591 502.702637,235.433121 510.457764,251.069687 
z"/>
<path fill="currentColor" opacity="1.000000" stroke="none" 
	d="
M134.300385,349.686096 
	C131.318909,344.079315 128.362885,338.863434 125.826241,333.450989 
	C125.068184,331.833527 125.483246,329.666229 125.360832,327.750854 
	C127.260521,327.667603 129.316284,327.063629 131.036469,327.579224 
	C156.612717,335.245728 182.650040,340.749786 209.208801,343.314056 
	C230.569427,345.376404 251.996613,347.050629 273.433929,347.929596 
	C293.391113,348.747894 313.401917,348.446014 333.386444,348.292480 
	C339.104614,348.248505 342.369232,350.004211 344.776245,355.488831 
	C346.998993,360.553650 350.415039,365.405853 354.304993,369.371277 
	C367.541168,382.864197 381.721588,395.166840 400.480682,400.606476 
	C401.686493,400.956116 402.740112,401.830566 404.339874,402.727386 
	C399.928589,409.699310 395.783783,416.308899 387.316956,418.090820 
	C363.413513,423.121552 339.669464,429.396729 315.521759,432.656738 
	C285.044678,436.771179 254.165924,437.832886 223.596786,441.384735 
	C212.782440,442.641266 206.063354,439.006958 198.921722,431.752960 
	C174.402390,406.847748 152.436249,380.035065 134.300385,349.686096 
z"/>
<path fill="currentColor" opacity="1.000000" stroke="none" 
	d="
M877.359131,332.364075 
	C885.576477,330.317932 893.395691,328.387939 901.214905,326.457947 
	C901.641174,326.868805 902.067444,327.279694 902.493774,327.690552 
	C901.261597,331.142334 900.310852,334.727234 898.751587,338.024292 
	C888.925415,358.801514 875.711548,377.359619 860.605347,394.544250 
	C847.854492,409.049377 834.563232,423.078339 821.597961,437.396698 
	C818.043213,441.322357 814.468567,442.013824 808.927063,441.223511 
	C795.608582,439.324005 782.057129,439.087555 768.608582,438.063934 
	C733.227722,435.371002 697.956848,431.765656 663.236877,424.131439 
	C654.311340,422.168854 645.534851,419.531250 636.681519,417.236053 
	C629.104187,415.271606 627.166321,408.150116 622.613037,402.709930 
	C624.420349,401.689026 625.621826,400.806824 626.963196,400.283020 
	C647.220520,392.373047 662.939636,378.501556 676.830078,362.269806 
	C678.759583,360.014954 680.615601,357.483215 681.692505,354.758362 
	C683.772400,349.495911 687.145752,347.861755 692.807434,347.862183 
	C717.788208,347.864136 742.810852,348.150391 767.739807,346.839752 
	C804.473511,344.908508 841.170288,341.931244 877.359131,332.364075 
z"/>
<path fill="none" opacity="1.000000" stroke="none" 
	d="
M510.275818,250.749329 
	C502.702637,235.433121 491.590759,223.855591 477.199402,215.436951 
	C489.177399,201.251251 500.792755,187.495010 512.557739,173.561584 
	C524.872925,187.297760 537.041199,200.870163 549.869324,215.178497 
	C533.172546,224.462799 522.764160,239.331390 513.121399,256.116882 
	C511.895172,253.793350 511.176483,252.431519 510.275818,250.749329 
z"/>
</svg>